<svg width="205" height="77" viewBox="0 0 205 77" fill="none" xmlns="http://www.w3.org/2000/svg">
<g filter="url(#filter0_d_44_2)">
<path d="M57.2945 14.8168C54.2952 15.8315 51.9424 17.7046 50.2422 20.4242V1.3388L57.2945 0V14.8168ZM54.1335 19.7878C56.7258 17.1642 59.8688 15.8555 63.5566 15.8555C67.2444 15.8555 70.3874 17.1642 72.9796 19.7878C75.5718 22.4114 76.871 25.5513 76.871 29.2074V45.5492H69.639V29.2074C69.639 28.1088 69.3636 27.0942 68.8189 26.1576C68.2741 25.2211 67.5317 24.4826 66.5978 23.9303C65.6639 23.384 64.6521 23.1078 63.5566 23.1078C61.8923 23.1078 60.4674 23.6961 59.2701 24.8789C58.0728 26.0556 57.4741 27.4784 57.4741 29.1474V29.2074V29.2675V45.5492H50.2422V29.2074C50.2422 25.5453 51.5413 22.4054 54.1335 19.7878Z" fill="#EF7232"/>
<path d="M108.802 19.5903C110.163 20.9288 111.258 22.5471 112.08 24.4392C112.903 26.3374 113.311 28.4363 113.311 30.7421C113.311 33.0479 112.903 35.153 112.08 37.0451C111.258 38.9433 110.169 40.5677 108.802 41.9244C107.441 43.2811 105.808 44.3458 103.903 45.1063C101.998 45.8668 99.9858 46.2501 97.8616 46.2501C95.7375 46.2501 93.7375 45.8668 91.85 45.1063C89.9684 44.3458 88.3353 43.2811 86.9508 41.9244C85.5662 40.5677 84.4775 38.9372 83.6787 37.0451C82.874 35.153 82.4775 33.0479 82.4775 30.7421C82.4775 28.4363 82.8799 26.3374 83.6787 24.4392C84.4775 22.5471 85.5721 20.9288 86.9508 19.5903C88.3353 18.2519 89.9625 17.2237 91.85 16.4997C93.7316 15.7818 95.7375 15.4167 97.8616 15.4167C99.9858 15.4167 101.998 15.7757 103.903 16.4997C105.808 17.2237 107.441 18.2519 108.802 19.5903ZM104.086 37.1424C104.749 36.2542 105.246 35.2503 105.589 34.1126C105.926 32.981 106.098 31.8494 106.098 30.7117C106.098 29.5801 105.926 28.4546 105.589 27.3412C105.246 26.2279 104.749 25.2301 104.086 24.3419C103.424 23.4536 102.583 22.7357 101.56 22.176C100.536 21.6223 99.3172 21.3425 97.8971 21.3425C96.4771 21.3425 95.2523 21.6223 94.2286 22.176C93.205 22.7296 92.353 23.4536 91.6725 24.3419C90.9921 25.2301 90.4891 26.2279 90.1696 27.3412C89.8501 28.4546 89.6903 29.574 89.6903 30.7117C89.6903 31.8433 89.8501 32.9749 90.1696 34.1126C90.4891 35.2442 90.9921 36.2542 91.6725 37.1424C92.353 38.0307 93.205 38.7607 94.2286 39.3387C95.2523 39.9167 96.4712 40.2026 97.8971 40.2026C99.3172 40.2026 100.542 39.9167 101.56 39.3387C102.583 38.7547 103.424 38.0246 104.086 37.1424Z" fill="#EF7232"/>
<path d="M127.402 10.632C126.516 11.5012 125.417 11.9298 124.11 11.9298C122.802 11.9298 121.727 11.4774 120.883 10.5724C120.039 9.66749 119.617 8.59586 119.617 7.36944C119.617 6.13706 120.039 5.07139 120.883 4.16645C121.727 3.26152 122.802 2.8031 124.11 2.8031C125.417 2.8031 126.516 3.23771 127.402 4.10096C128.287 4.97018 128.727 6.05967 128.727 7.36944C128.733 8.67921 128.287 9.7687 127.402 10.632ZM120.645 45.5493V18.4013L127.764 17.0737V45.5493H120.645Z" fill="#EF7232"/>
<path d="M157.016 37.373C157.058 37.3314 157.1 37.2838 157.136 37.2244C157.179 37.1649 157.197 37.1114 157.197 37.0757L161.603 42.2068C160.259 43.4554 158.667 44.4186 156.829 45.1023C154.912 45.8693 152.869 46.2499 150.705 46.2499C148.541 46.2499 146.504 45.8753 144.581 45.1321C142.665 44.3889 141.001 43.3484 139.591 42.0225C138.186 40.6966 137.071 39.1032 136.258 37.2541C135.438 35.405 135.034 33.3478 135.034 31.0944C135.034 28.841 135.444 26.7897 136.258 24.9347C137.071 23.0856 138.186 21.5041 139.591 20.196C141.001 18.888 142.659 17.8832 144.581 17.1756C146.498 16.474 148.541 16.1173 150.705 16.1173C152.869 16.1173 154.906 16.48 156.829 17.2054C158.667 17.8891 160.277 18.8583 161.663 20.1009L157.257 25.232C157.257 25.1904 157.233 25.1309 157.197 25.0536L157.016 24.8098C156.365 23.9656 155.515 23.2699 154.478 22.7289C153.436 22.1878 152.194 21.9143 150.747 21.9143C149.301 21.9143 148.053 22.1878 147.01 22.7289C145.968 23.2699 145.1 23.9775 144.407 24.8455C143.714 25.7136 143.201 26.6887 142.876 27.7767C142.55 28.8648 142.388 29.9588 142.388 31.0706C142.388 32.1765 142.55 33.2824 142.876 34.3942C143.201 35.5001 143.714 36.4871 144.407 37.3552C145.1 38.2232 145.968 38.9367 147.01 39.5015C148.053 40.0664 149.295 40.3458 150.747 40.3458C152.194 40.3458 153.442 40.0664 154.478 39.5015C155.515 38.9189 156.365 38.2173 157.016 37.373Z" fill="#EF7232"/>
<path d="M192.113 19.982C193.335 21.2722 194.291 22.8775 194.973 24.8098C195.655 26.7422 196 28.9777 196 31.5106V32.4797C196 32.8008 195.976 33.1219 195.94 33.4489H176.774V28.3178H188.885C188.885 27.4319 188.766 26.5757 188.523 25.7493C188.28 24.9228 187.882 24.1915 187.319 23.5434C186.755 22.9013 186.055 22.384 185.212 22.0035C184.37 21.623 183.361 21.4327 182.198 21.4327C180.068 21.4327 178.27 22.0748 176.804 23.3651C175.338 24.6553 174.525 26.3022 174.365 28.3178C174.205 29.8874 174.205 31.5998 174.365 33.4489C174.442 34.4537 174.703 35.3931 175.149 36.2552C175.588 37.1233 176.193 37.8546 176.958 38.4611C177.724 39.0675 178.578 39.5491 179.522 39.9118C180.465 40.2745 181.438 40.4529 182.447 40.4529C184.257 40.4529 185.764 40.1318 186.968 39.4897C188.131 38.8475 189.016 38.2232 189.621 37.6168L193.478 42.2068C190.422 44.9061 186.767 46.2499 182.512 46.2499C180.305 46.2499 178.276 45.911 176.424 45.2213C174.573 44.5375 172.971 43.5624 171.606 42.2901C170.241 41.0236 169.173 39.4599 168.414 37.6108C167.648 35.7617 167.269 33.6689 167.269 31.3322C167.269 29.0788 167.648 27.0038 168.414 25.1131C169.173 23.2224 170.229 21.6111 171.576 20.2852C172.923 18.9593 174.508 17.9307 176.335 17.2054C178.163 16.48 180.139 16.1173 182.269 16.1173C184.275 16.1173 186.114 16.4384 187.781 17.0864C189.437 17.7286 190.885 18.6918 192.113 19.982Z" fill="#EF7232"/>
<path d="M26.7674 21.0227C29.67 21.0227 32.0231 18.6697 32.0231 15.767C32.0231 12.8644 29.67 10.5114 26.7674 10.5114C23.8648 10.5114 21.5117 12.8644 21.5117 15.767C21.5117 18.6697 23.8648 21.0227 26.7674 21.0227Z" fill="#EF7232"/>
<path d="M41.8333 30.0004C41.8333 38.5895 34.9328 45.5491 26.4167 45.5491C17.9064 45.5491 11.0059 38.5955 11 30.0123V18.3434C11 14.3264 12.8346 10.7511 15.7167 8.42323C17.8828 6.65646 20.6347 5.60596 23.6292 5.60596C26.9907 5.60596 30.0385 6.93103 32.3052 9.08576C30.7369 7.70697 28.6833 6.86537 26.4403 6.86537C21.5165 6.86537 17.5277 10.8883 17.5277 15.8544H17.5217L17.4862 27.0279L17.4803 29.4751V30.0243C17.4922 34.9784 21.475 38.9894 26.393 38.9894C31.3168 38.9894 35.3056 34.9664 35.3056 30.0004H35.353V25.3209H41.8096V30.0004H41.8333Z" fill="#EF7232"/>
<path d="M41.8338 29.9515H41.8105V25.2272H35.438V29.9515C35.438 30.0533 35.438 30.155 35.4322 30.2568V30.3287C35.4322 37.3701 29.8658 43.0763 22.9969 43.0763C20.0472 43.0763 17.337 42.0225 15.2051 40.2561C17.9854 43.5014 22.0682 45.5492 26.6182 45.5492C35.0233 45.5492 41.8338 38.5676 41.8338 29.9515Z" fill="#EF7232"/>
<path d="M34.8257 32.5945C34.4748 33.3745 34.0479 34.1072 33.5508 34.7868C33.5274 34.8163 33.5099 34.8458 33.4865 34.8754C33.083 35.4604 32.6151 35.9981 32.0829 36.4708C32.0771 36.4767 32.0654 36.4886 32.0537 36.4945C29.8138 38.6276 26.8019 39.9394 23.4801 39.9394C20.5209 39.9394 17.8015 38.8994 15.661 37.1504C12.813 34.8458 11 31.3063 11 27.3296V29.7936C11 33.6936 12.4387 37.2567 14.8072 39.9631C16.9418 41.7062 19.6554 42.7462 22.6088 42.7462C28.6617 42.7462 33.7087 38.3794 34.8257 32.5945Z" fill="#EF7232"/>
<path d="M41.8338 16.9992H41.8105V21.7234H35.438V16.9992C35.438 16.8974 35.438 16.7956 35.4322 16.6938V16.622C35.4322 9.58057 29.8658 3.87437 22.9969 3.87437C20.0472 3.87437 17.337 4.92819 15.2051 6.69454C17.9854 3.44925 22.0682 1.40149 26.6182 1.40149C35.0233 1.40149 41.8338 8.38304 41.8338 16.9992Z" fill="#EF7232"/>
<path d="M34.8257 13.6555C34.4748 12.8755 34.0479 12.1428 33.5508 11.4632C33.5274 11.4337 33.5099 11.4042 33.4865 11.3746C33.083 10.7896 32.6151 10.2519 32.0829 9.77917C32.0771 9.77326 32.0654 9.76144 32.0537 9.75554C29.8138 7.62238 26.8019 6.31057 23.4801 6.31057C20.5209 6.31057 17.8015 7.35056 15.661 9.09963C12.813 11.4042 11 14.9437 11 18.9204V16.4564C11 12.5564 12.4387 8.99327 14.8072 6.28694C16.9418 4.54377 19.6554 3.50378 22.6088 3.50378C28.6617 3.50378 33.7087 7.87056 34.8257 13.6555Z" fill="#EF7232"/>
</g>
<path d="M10.6742 66.2368V56.7155H14.9452C16.0424 56.7155 16.8857 56.9377 17.4751 57.382C18.0646 57.8172 18.3593 58.4157 18.3593 59.1774C18.3593 59.6943 18.2414 60.1296 18.0056 60.4832C17.7789 60.8369 17.4706 61.1089 17.0807 61.2993C16.6908 61.4898 16.2691 61.585 15.8157 61.585L16.0605 61.1769C16.6046 61.1769 17.0852 61.2721 17.5023 61.4626C17.9195 61.653 18.2504 61.9341 18.4953 62.3059C18.7401 62.6686 18.8625 63.122 18.8625 63.6661C18.8625 64.4822 18.5542 65.1169 17.9376 65.5703C17.3301 66.0147 16.4233 66.2368 15.2172 66.2368H10.6742ZM12.0344 65.1351H15.1628C15.9155 65.1351 16.4913 65.0081 16.8903 64.7542C17.2892 64.5003 17.4887 64.1013 17.4887 63.5572C17.4887 63.0041 17.2892 62.6006 16.8903 62.3467C16.4913 62.0928 15.9155 61.9658 15.1628 61.9658H11.912V60.8641H14.8228C15.5119 60.8641 16.0469 60.7371 16.4278 60.4832C16.8086 60.2293 16.9991 59.8485 16.9991 59.3407C16.9991 58.8329 16.8086 58.452 16.4278 58.1981C16.0469 57.9442 15.5119 57.8172 14.8228 57.8172H12.0344V65.1351ZM21.091 68.9572C20.7464 68.9572 20.4109 68.8983 20.0845 68.7804C19.758 68.6716 19.4769 68.5083 19.2412 68.2907L19.7988 67.3114C19.9802 67.4837 20.1797 67.6151 20.3973 67.7058C20.6149 67.7965 20.8462 67.8418 21.091 67.8418C21.4084 67.8418 21.6714 67.7602 21.8799 67.597C22.0885 67.4338 22.2834 67.1436 22.4648 66.7265L22.9137 65.7335L23.0497 65.5703L25.8789 59.0278H27.1575L23.6618 66.9577C23.4532 67.4655 23.2174 67.8645 22.9545 68.1547C22.7006 68.4449 22.4195 68.6489 22.1112 68.7668C21.8028 68.8937 21.4628 68.9572 21.091 68.9572ZM22.8049 66.468L19.5132 59.0278H20.8734L23.6754 65.4479L22.8049 66.468ZM32.2194 66.2368V56.7155H35.9327C36.7669 56.7155 37.4788 56.847 38.0682 57.1099C38.6576 57.3729 39.111 57.7538 39.4284 58.2525C39.7458 58.7512 39.9045 59.3452 39.9045 60.0344C39.9045 60.7235 39.7458 61.3175 39.4284 61.8162C39.111 62.3059 38.6576 62.6867 38.0682 62.9588C37.4788 63.2217 36.7669 63.3532 35.9327 63.3532H32.9675L33.5796 62.7139V66.2368H32.2194ZM33.5796 62.8499L32.9675 62.1698H35.8919C36.7624 62.1698 37.4198 61.984 37.8642 61.6122C38.3176 61.2404 38.5443 60.7144 38.5443 60.0344C38.5443 59.3543 38.3176 58.8283 37.8642 58.4565C37.4198 58.0847 36.7624 57.8989 35.8919 57.8989H32.9675L33.5796 57.2188V62.8499ZM46.1209 66.2368V64.7134L46.0529 64.4278V61.8298C46.0529 61.2767 45.8897 60.8505 45.5633 60.5512C45.2459 60.2429 44.7653 60.0888 44.1215 60.0888C43.6953 60.0888 43.2781 60.1613 42.8701 60.3064C42.462 60.4424 42.1175 60.6283 41.8363 60.8641L41.2923 59.8847C41.6641 59.5855 42.1084 59.3588 42.6253 59.2046C43.1512 59.0414 43.6998 58.9598 44.2711 58.9598C45.2595 58.9598 46.0212 59.2001 46.5562 59.6807C47.0912 60.1613 47.3587 60.8958 47.3587 61.8842V66.2368H46.1209ZM43.7542 66.3184C43.2192 66.3184 42.7477 66.2277 42.3396 66.0464C41.9406 65.865 41.6323 65.6157 41.4147 65.2983C41.1971 64.9718 41.0882 64.6046 41.0882 64.1965C41.0882 63.8066 41.1789 63.453 41.3603 63.1356C41.5507 62.8182 41.8545 62.5643 42.2716 62.3739C42.6978 62.1835 43.2691 62.0882 43.9854 62.0882H46.2706V63.0268H44.0399C43.387 63.0268 42.9472 63.1356 42.7205 63.3532C42.4938 63.5708 42.3804 63.8338 42.3804 64.1421C42.3804 64.4958 42.521 64.7814 42.8021 64.999C43.0832 65.2076 43.4731 65.3119 43.9718 65.3119C44.4615 65.3119 44.8877 65.2031 45.2504 64.9854C45.6222 64.7678 45.8897 64.4504 46.0529 64.0333L46.3114 64.931C46.1391 65.3572 45.8353 65.6973 45.4 65.9512C44.9648 66.196 44.4162 66.3184 43.7542 66.3184ZM53.6245 58.9598C54.2139 58.9598 54.7308 59.0732 55.1751 59.2998C55.6285 59.5265 55.9822 59.8711 56.2361 60.3336C56.49 60.7961 56.6169 61.3809 56.6169 62.0882V66.2368H55.3111V62.2379C55.3111 61.5396 55.1389 61.0137 54.7943 60.66C54.4588 60.3064 53.9827 60.1296 53.3661 60.1296C52.9036 60.1296 52.5001 60.2202 52.1555 60.4016C51.8109 60.583 51.5434 60.8505 51.353 61.2041C51.1716 61.5578 51.081 61.9976 51.081 62.5235V66.2368H49.7752V59.0278H51.0265V60.9729L50.8225 60.456C51.0583 59.9845 51.421 59.6172 51.9107 59.3543C52.4003 59.0913 52.9716 58.9598 53.6245 58.9598ZM61.9987 66.3456C61.2733 66.3456 60.5796 66.2368 59.9176 66.0192C59.2557 65.7925 58.7343 65.5023 58.3534 65.1487L58.8567 64.0877C59.2194 64.4051 59.6819 64.6681 60.2441 64.8766C60.8063 65.0852 61.3912 65.1895 61.9987 65.1895C62.5519 65.1895 63.0007 65.126 63.3453 64.999C63.6899 64.8721 63.9438 64.6998 64.107 64.4822C64.2702 64.2555 64.3518 64.0016 64.3518 63.7205C64.3518 63.394 64.243 63.1311 64.0254 62.9316C63.8168 62.7321 63.5403 62.5734 63.1957 62.4555C62.8602 62.3285 62.4884 62.2197 62.0803 62.129C61.6723 62.0384 61.2597 61.9341 60.8425 61.8162C60.4345 61.6892 60.0582 61.5306 59.7136 61.3401C59.3781 61.1497 59.106 60.8958 58.8975 60.5784C58.6889 60.252 58.5846 59.8349 58.5846 59.3271C58.5846 58.8374 58.7116 58.3885 58.9655 57.9805C59.2285 57.5633 59.6274 57.2324 60.1625 56.9875C60.7065 56.7336 61.3957 56.6067 62.2299 56.6067C62.7831 56.6067 63.3317 56.6792 63.8758 56.8243C64.4198 56.9694 64.8914 57.178 65.2904 57.45L64.8415 58.5381C64.4334 58.2661 64.0027 58.0711 63.5493 57.9533C63.0959 57.8263 62.6561 57.7628 62.2299 57.7628C61.6949 57.7628 61.2551 57.8308 60.9106 57.9669C60.566 58.1029 60.3121 58.2842 60.1489 58.5109C59.9947 58.7376 59.9176 58.9915 59.9176 59.2726C59.9176 59.6082 60.0219 59.8757 60.2305 60.0752C60.4481 60.2747 60.7247 60.4333 61.0602 60.5512C61.4048 60.6691 61.7811 60.7779 62.1891 60.8777C62.5972 60.9683 63.0052 61.0726 63.4133 61.1905C63.8304 61.3084 64.2067 61.4626 64.5423 61.653C64.8868 61.8434 65.1634 62.0973 65.372 62.4147C65.5805 62.7321 65.6848 63.1401 65.6848 63.6389C65.6848 64.1195 65.5533 64.5683 65.2904 64.9854C65.0274 65.3935 64.6193 65.7245 64.0662 65.9784C63.5221 66.2232 62.833 66.3456 61.9987 66.3456ZM70.6236 66.3184C69.8891 66.3184 69.2317 66.1597 68.6513 65.8424C68.08 65.525 67.6312 65.0897 67.3047 64.5366C66.9783 63.9834 66.8151 63.3487 66.8151 62.6323C66.8151 61.9159 66.9783 61.2812 67.3047 60.728C67.6312 60.1749 68.08 59.7442 68.6513 59.4359C69.2317 59.1185 69.8891 58.9598 70.6236 58.9598C71.2765 58.9598 71.8568 59.0913 72.3646 59.3543C72.8815 59.6082 73.2805 59.989 73.5616 60.4968L72.5687 61.1361C72.3329 60.7825 72.0427 60.524 71.6981 60.3608C71.3626 60.1885 70.9999 60.1024 70.61 60.1024C70.1385 60.1024 69.7168 60.2066 69.345 60.4152C68.9732 60.6238 68.6785 60.9185 68.4609 61.2993C68.2433 61.6711 68.1344 62.1154 68.1344 62.6323C68.1344 63.1492 68.2433 63.598 68.4609 63.9789C68.6785 64.3598 68.9732 64.6545 69.345 64.863C69.7168 65.0716 70.1385 65.1759 70.61 65.1759C70.9999 65.1759 71.3626 65.0943 71.6981 64.931C72.0427 64.7587 72.3329 64.4958 72.5687 64.1421L73.5616 64.7678C73.2805 65.2665 72.8815 65.6519 72.3646 65.924C71.8568 66.1869 71.2765 66.3184 70.6236 66.3184ZM75.1592 66.2368V59.0278H76.465V66.2368H75.1592ZM75.8121 57.6404C75.5582 57.6404 75.3451 57.5588 75.1728 57.3956C75.0096 57.2324 74.9279 57.0329 74.9279 56.7971C74.9279 56.5523 75.0096 56.3482 75.1728 56.185C75.3451 56.0218 75.5582 55.9402 75.8121 55.9402C76.066 55.9402 76.2745 56.0218 76.4378 56.185C76.6101 56.3392 76.6962 56.5341 76.6962 56.7699C76.6962 57.0147 76.6146 57.2233 76.4514 57.3956C76.2881 57.5588 76.075 57.6404 75.8121 57.6404ZM82.1682 66.3184C81.3974 66.3184 80.7173 66.1597 80.1279 65.8424C79.5476 65.525 79.0942 65.0897 78.7677 64.5366C78.4503 63.9834 78.2917 63.3487 78.2917 62.6323C78.2917 61.9159 78.4458 61.2812 78.7541 60.728C79.0715 60.1749 79.5022 59.7442 80.0463 59.4359C80.5994 59.1185 81.2206 58.9598 81.9098 58.9598C82.608 58.9598 83.2246 59.114 83.7596 59.4223C84.2946 59.7306 84.7117 60.1658 85.011 60.728C85.3193 61.2812 85.4735 61.9295 85.4735 62.6731C85.4735 62.7275 85.4689 62.791 85.4599 62.8635C85.4599 62.9361 85.4553 63.0041 85.4463 63.0676H79.3118V62.129H84.7662L84.2357 62.4555C84.2448 61.993 84.1495 61.5804 83.95 61.2177C83.7505 60.855 83.474 60.5739 83.1203 60.3744C82.7757 60.1658 82.3722 60.0616 81.9098 60.0616C81.4564 60.0616 81.0528 60.1658 80.6992 60.3744C80.3455 60.5739 80.069 60.8595 79.8695 61.2313C79.67 61.594 79.5702 62.0112 79.5702 62.4827V62.7003C79.5702 63.1809 79.679 63.6117 79.8967 63.9925C80.1234 64.3643 80.4362 64.6545 80.8352 64.863C81.2342 65.0716 81.6921 65.1759 82.209 65.1759C82.6352 65.1759 83.0206 65.1033 83.3652 64.9582C83.7188 64.8132 84.0271 64.5955 84.2901 64.3053L85.011 65.1487C84.6845 65.5295 84.2765 65.8197 83.7868 66.0192C83.3062 66.2187 82.7667 66.3184 82.1682 66.3184ZM91.136 58.9598C91.7254 58.9598 92.2423 59.0732 92.6866 59.2998C93.14 59.5265 93.4937 59.8711 93.7476 60.3336C94.0015 60.7961 94.1284 61.3809 94.1284 62.0882V66.2368H92.8226V62.2379C92.8226 61.5396 92.6503 61.0137 92.3058 60.66C91.9702 60.3064 91.4942 60.1296 90.8776 60.1296C90.4151 60.1296 90.0116 60.2202 89.667 60.4016C89.3224 60.583 89.0549 60.8505 88.8645 61.2041C88.6831 61.5578 88.5924 61.9976 88.5924 62.5235V66.2368H87.2867V59.0278H88.538V60.9729L88.334 60.456C88.5698 59.9845 88.9325 59.6172 89.4222 59.3543C89.9118 59.0913 90.4831 58.9598 91.136 58.9598ZM99.687 66.3184C98.9525 66.3184 98.2951 66.1597 97.7147 65.8424C97.1435 65.525 96.6946 65.0897 96.3681 64.5366C96.0417 63.9834 95.8785 63.3487 95.8785 62.6323C95.8785 61.9159 96.0417 61.2812 96.3681 60.728C96.6946 60.1749 97.1435 59.7442 97.7147 59.4359C98.2951 59.1185 98.9525 58.9598 99.687 58.9598C100.34 58.9598 100.92 59.0913 101.428 59.3543C101.945 59.6082 102.344 59.989 102.625 60.4968L101.632 61.1361C101.396 60.7825 101.106 60.524 100.762 60.3608C100.426 60.1885 100.063 60.1024 99.6734 60.1024C99.2019 60.1024 98.7802 60.2066 98.4084 60.4152C98.0366 60.6238 97.7419 60.9185 97.5243 61.2993C97.3067 61.6711 97.1979 62.1154 97.1979 62.6323C97.1979 63.1492 97.3067 63.598 97.5243 63.9789C97.7419 64.3598 98.0366 64.6545 98.4084 64.863C98.7802 65.0716 99.2019 65.1759 99.6734 65.1759C100.063 65.1759 100.426 65.0943 100.762 64.931C101.106 64.7587 101.396 64.4958 101.632 64.1421L102.625 64.7678C102.344 65.2665 101.945 65.6519 101.428 65.924C100.92 66.1869 100.34 66.3184 99.687 66.3184ZM107.419 66.3184C106.649 66.3184 105.969 66.1597 105.379 65.8424C104.799 65.525 104.345 65.0897 104.019 64.5366C103.702 63.9834 103.543 63.3487 103.543 62.6323C103.543 61.9159 103.697 61.2812 104.005 60.728C104.323 60.1749 104.753 59.7442 105.297 59.4359C105.851 59.1185 106.472 58.9598 107.161 58.9598C107.859 58.9598 108.476 59.114 109.011 59.4223C109.546 59.7306 109.963 60.1658 110.262 60.728C110.57 61.2812 110.725 61.9295 110.725 62.6731C110.725 62.7275 110.72 62.791 110.711 62.8635C110.711 62.9361 110.706 63.0041 110.697 63.0676H104.563V62.129H110.017L109.487 62.4555C109.496 61.993 109.401 61.5804 109.201 61.2177C109.002 60.855 108.725 60.5739 108.372 60.3744C108.027 60.1658 107.623 60.0616 107.161 60.0616C106.708 60.0616 106.304 60.1658 105.95 60.3744C105.597 60.5739 105.32 60.8595 105.121 61.2313C104.921 61.594 104.821 62.0112 104.821 62.4827V62.7003C104.821 63.1809 104.93 63.6117 105.148 63.9925C105.375 64.3643 105.687 64.6545 106.086 64.863C106.485 65.0716 106.943 65.1759 107.46 65.1759C107.886 65.1759 108.272 65.1033 108.616 64.9582C108.97 64.8132 109.278 64.5955 109.541 64.3053L110.262 65.1487C109.936 65.5295 109.528 65.8197 109.038 66.0192C108.557 66.2187 108.018 66.3184 107.419 66.3184ZM116.381 66.2368V56.7155H117.741V66.2368H116.381ZM124.251 58.9598C124.84 58.9598 125.357 59.0732 125.801 59.2998C126.255 59.5265 126.608 59.8711 126.862 60.3336C127.116 60.7961 127.243 61.3809 127.243 62.0882V66.2368H125.937V62.2379C125.937 61.5396 125.765 61.0137 125.421 60.66C125.085 60.3064 124.609 60.1296 123.992 60.1296C123.53 60.1296 123.126 60.2202 122.782 60.4016C122.437 60.583 122.17 60.8505 121.979 61.2041C121.798 61.5578 121.707 61.9976 121.707 62.5235V66.2368H120.401V59.0278H121.653V60.9729L121.449 60.456C121.685 59.9845 122.047 59.6172 122.537 59.3543C123.027 59.0913 123.598 58.9598 124.251 58.9598ZM133.509 58.9598C134.098 58.9598 134.615 59.0732 135.06 59.2998C135.513 59.5265 135.867 59.8711 136.121 60.3336C136.375 60.7961 136.501 61.3809 136.501 62.0882V66.2368H135.196V62.2379C135.196 61.5396 135.023 61.0137 134.679 60.66C134.343 60.3064 133.867 60.1296 133.251 60.1296C132.788 60.1296 132.385 60.2202 132.04 60.4016C131.695 60.583 131.428 60.8505 131.238 61.2041C131.056 61.5578 130.966 61.9976 130.966 62.5235V66.2368H129.66V59.0278H130.911V60.9729L130.707 60.456C130.943 59.9845 131.306 59.6172 131.795 59.3543C132.285 59.0913 132.856 58.9598 133.509 58.9598ZM142.006 66.3184C141.28 66.3184 140.636 66.1597 140.074 65.8424C139.512 65.525 139.068 65.0897 138.741 64.5366C138.415 63.9744 138.252 63.3396 138.252 62.6323C138.252 61.9159 138.415 61.2812 138.741 60.728C139.068 60.1749 139.512 59.7442 140.074 59.4359C140.636 59.1185 141.28 58.9598 142.006 58.9598C142.722 58.9598 143.361 59.1185 143.924 59.4359C144.495 59.7442 144.939 60.1749 145.257 60.728C145.583 61.2721 145.746 61.9069 145.746 62.6323C145.746 63.3487 145.583 63.9834 145.257 64.5366C144.939 65.0897 144.495 65.525 143.924 65.8424C143.361 66.1597 142.722 66.3184 142.006 66.3184ZM142.006 65.1759C142.468 65.1759 142.881 65.0716 143.243 64.863C143.615 64.6545 143.905 64.3598 144.114 63.9789C144.323 63.589 144.427 63.1401 144.427 62.6323C144.427 62.1154 144.323 61.6711 144.114 61.2993C143.905 60.9185 143.615 60.6238 143.243 60.4152C142.881 60.2066 142.468 60.1024 142.006 60.1024C141.543 60.1024 141.131 60.2066 140.768 60.4152C140.405 60.6238 140.115 60.9185 139.897 61.2993C139.68 61.6711 139.571 62.1154 139.571 62.6323C139.571 63.1401 139.68 63.589 139.897 63.9789C140.115 64.3598 140.405 64.6545 140.768 64.863C141.131 65.0716 141.543 65.1759 142.006 65.1759ZM149.243 66.2368L146.088 59.0278H147.448L150.25 65.5567H149.597L152.454 59.0278H153.732L150.576 66.2368H149.243ZM159.2 66.2368V64.7134L159.132 64.4278V61.8298C159.132 61.2767 158.969 60.8505 158.642 60.5512C158.325 60.2429 157.844 60.0888 157.2 60.0888C156.774 60.0888 156.357 60.1613 155.949 60.3064C155.541 60.4424 155.196 60.6283 154.915 60.8641L154.371 59.8847C154.743 59.5855 155.187 59.3588 155.704 59.2046C156.23 59.0414 156.779 58.9598 157.35 58.9598C158.339 58.9598 159.1 59.2001 159.635 59.6807C160.17 60.1613 160.438 60.8958 160.438 61.8842V66.2368H159.2ZM156.833 66.3184C156.298 66.3184 155.827 66.2277 155.419 66.0464C155.02 65.865 154.711 65.6157 154.494 65.2983C154.276 64.9718 154.167 64.6046 154.167 64.1965C154.167 63.8066 154.258 63.453 154.439 63.1356C154.63 62.8182 154.934 62.5643 155.351 62.3739C155.777 62.1835 156.348 62.0882 157.064 62.0882H159.35V63.0268H157.119C156.466 63.0268 156.026 63.1356 155.8 63.3532C155.573 63.5708 155.459 63.8338 155.459 64.1421C155.459 64.4958 155.6 64.7814 155.881 64.999C156.162 65.2076 156.552 65.3119 157.051 65.3119C157.541 65.3119 157.967 65.2031 158.329 64.9854C158.701 64.7678 158.969 64.4504 159.132 64.0333L159.39 64.931C159.218 65.3572 158.914 65.6973 158.479 65.9512C158.044 66.196 157.495 66.3184 156.833 66.3184ZM165.33 66.3184C164.604 66.3184 164.042 66.1235 163.643 65.7335C163.244 65.3436 163.045 64.7859 163.045 64.0605V57.45H164.35V64.0061C164.35 64.396 164.446 64.6953 164.636 64.9038C164.836 65.1124 165.117 65.2167 165.479 65.2167C165.887 65.2167 166.227 65.1033 166.5 64.8766L166.908 65.8152C166.708 65.9874 166.468 66.1144 166.187 66.196C165.915 66.2776 165.629 66.3184 165.33 66.3184ZM161.82 60.1024V59.0278H166.418V60.1024H161.82ZM168.486 66.2368V59.0278H169.792V66.2368H168.486ZM169.139 57.6404C168.885 57.6404 168.672 57.5588 168.5 57.3956C168.337 57.2324 168.255 57.0329 168.255 56.7971C168.255 56.5523 168.337 56.3482 168.5 56.185C168.672 56.0218 168.885 55.9402 169.139 55.9402C169.393 55.9402 169.602 56.0218 169.765 56.185C169.937 56.3392 170.023 56.5341 170.023 56.7699C170.023 57.0147 169.942 57.2233 169.778 57.3956C169.615 57.5588 169.402 57.6404 169.139 57.6404ZM175.373 66.3184C174.647 66.3184 174.004 66.1597 173.441 65.8424C172.879 65.525 172.435 65.0897 172.108 64.5366C171.782 63.9744 171.619 63.3396 171.619 62.6323C171.619 61.9159 171.782 61.2812 172.108 60.728C172.435 60.1749 172.879 59.7442 173.441 59.4359C174.004 59.1185 174.647 58.9598 175.373 58.9598C176.089 58.9598 176.728 59.1185 177.291 59.4359C177.862 59.7442 178.306 60.1749 178.624 60.728C178.95 61.2721 179.113 61.9069 179.113 62.6323C179.113 63.3487 178.95 63.9834 178.624 64.5366C178.306 65.0897 177.862 65.525 177.291 65.8424C176.728 66.1597 176.089 66.3184 175.373 66.3184ZM175.373 65.1759C175.835 65.1759 176.248 65.0716 176.611 64.863C176.982 64.6545 177.273 64.3598 177.481 63.9789C177.69 63.589 177.794 63.1401 177.794 62.6323C177.794 62.1154 177.69 61.6711 177.481 61.2993C177.273 60.9185 176.982 60.6238 176.611 60.4152C176.248 60.2066 175.835 60.1024 175.373 60.1024C174.91 60.1024 174.498 60.2066 174.135 60.4152C173.772 60.6238 173.482 60.9185 173.265 61.2993C173.047 61.6711 172.938 62.1154 172.938 62.6323C172.938 63.1401 173.047 63.589 173.265 63.9789C173.482 64.3598 173.772 64.6545 174.135 64.863C174.498 65.0716 174.91 65.1759 175.373 65.1759ZM184.769 58.9598C185.358 58.9598 185.875 59.0732 186.319 59.2998C186.773 59.5265 187.126 59.8711 187.38 60.3336C187.634 60.7961 187.761 61.3809 187.761 62.0882V66.2368H186.455V62.2379C186.455 61.5396 186.283 61.0137 185.938 60.66C185.603 60.3064 185.127 60.1296 184.51 60.1296C184.048 60.1296 183.644 60.2202 183.3 60.4016C182.955 60.583 182.687 60.8505 182.497 61.2041C182.316 61.5578 182.225 61.9976 182.225 62.5235V66.2368H180.919V59.0278H182.171V60.9729L181.967 60.456C182.202 59.9845 182.565 59.6172 183.055 59.3543C183.544 59.0913 184.116 58.9598 184.769 58.9598ZM192.245 66.3184C191.647 66.3184 191.075 66.2368 190.531 66.0736C189.996 65.9104 189.575 65.7109 189.266 65.4751L189.81 64.4414C190.119 64.6499 190.499 64.8268 190.953 64.9718C191.406 65.1169 191.869 65.1895 192.34 65.1895C192.948 65.1895 193.383 65.1033 193.646 64.931C193.918 64.7587 194.054 64.5184 194.054 64.2101C194.054 63.9834 193.972 63.8066 193.809 63.6797C193.646 63.5527 193.428 63.4575 193.156 63.394C192.893 63.3305 192.599 63.2761 192.272 63.2308C191.946 63.1764 191.619 63.1129 191.293 63.0404C190.966 62.9588 190.667 62.8499 190.395 62.7139C190.123 62.5688 189.905 62.3739 189.742 62.129C189.579 61.8751 189.497 61.5396 189.497 61.1225C189.497 60.6872 189.62 60.3064 189.865 59.9799C190.11 59.6535 190.454 59.4041 190.898 59.2318C191.352 59.0505 191.887 58.9598 192.503 58.9598C192.975 58.9598 193.451 59.0187 193.932 59.1366C194.421 59.2454 194.82 59.4041 195.129 59.6127L194.571 60.6464C194.244 60.4288 193.904 60.2792 193.551 60.1976C193.197 60.116 192.844 60.0752 192.49 60.0752C191.919 60.0752 191.492 60.1704 191.211 60.3608C190.93 60.5422 190.79 60.7779 190.79 61.0681C190.79 61.3129 190.871 61.5034 191.034 61.6394C191.207 61.7663 191.424 61.8661 191.687 61.9386C191.959 62.0112 192.259 62.0746 192.585 62.129C192.912 62.1744 193.238 62.2379 193.564 62.3195C193.891 62.392 194.186 62.4963 194.449 62.6323C194.721 62.7683 194.938 62.9588 195.101 63.2036C195.274 63.4484 195.36 63.7749 195.36 64.1829C195.36 64.6182 195.233 64.9945 194.979 65.3119C194.725 65.6293 194.367 65.8786 193.904 66.06C193.442 66.2323 192.889 66.3184 192.245 66.3184Z" fill="#EF7232"/>
<defs>
<filter id="filter0_d_44_2" x="7" y="0" width="193" height="54.25" filterUnits="userSpaceOnUse" color-interpolation-filters="sRGB">
<feFlood flood-opacity="0" result="BackgroundImageFix"/>
<feColorMatrix in="SourceAlpha" type="matrix" values="0 0 0 0 0 0 0 0 0 0 0 0 0 0 0 0 0 0 127 0" result="hardAlpha"/>
<feOffset dy="4"/>
<feGaussianBlur stdDeviation="2"/>
<feComposite in2="hardAlpha" operator="out"/>
<feColorMatrix type="matrix" values="0 0 0 0 0 0 0 0 0 0 0 0 0 0 0 0 0 0 0.25 0"/>
<feBlend mode="normal" in2="BackgroundImageFix" result="effect1_dropShadow_44_2"/>
<feBlend mode="normal" in="SourceGraphic" in2="effect1_dropShadow_44_2" result="shape"/>
</filter>
</defs>
</svg>
